<mxfile modified="2023-02-04T20:32:05.644Z" host="app.diagrams.net" agent="5.0 (Macintosh; Intel Mac OS X 10_15_7) AppleWebKit/537.36 (KHTML, like Gecko) Chrome/109.0.0.0 Safari/537.36" etag="YGmdzICl4JvY_a_LpCC6" version="20.8.16" type="github">
  <diagram id="Ht1M8jgEwFfnCIfOTk4-" name="Page-1">
    <mxGraphModel dx="1244" dy="1518" grid="1" gridSize="10" guides="1" tooltips="1" connect="1" arrows="1" fold="1" page="1" pageScale="1" pageWidth="1169" pageHeight="827" math="0" shadow="0">
      <root>
        <mxCell id="0" />
        <mxCell id="1" parent="0" />
        <mxCell id="1Dce43o4w5NnJjjtHdYD-5" style="edgeStyle=orthogonalEdgeStyle;rounded=0;orthogonalLoop=1;jettySize=auto;html=1;entryX=0;entryY=0.5;entryDx=0;entryDy=0;" edge="1" parent="1" source="1Dce43o4w5NnJjjtHdYD-1" target="1Dce43o4w5NnJjjtHdYD-3">
          <mxGeometry relative="1" as="geometry" />
        </mxCell>
        <mxCell id="1Dce43o4w5NnJjjtHdYD-1" value="" style="shape=image;html=1;verticalAlign=top;verticalLabelPosition=bottom;labelBackgroundColor=#ffffff;imageAspect=0;aspect=fixed;image=https://cdn1.iconfinder.com/data/icons/material-core/20/account-circle-128.png" vertex="1" parent="1">
          <mxGeometry x="20" y="-590" width="60" height="60" as="geometry" />
        </mxCell>
        <mxCell id="1Dce43o4w5NnJjjtHdYD-2" value="" style="whiteSpace=wrap;html=1;aspect=fixed;" vertex="1" parent="1">
          <mxGeometry x="350" y="-775" width="430" height="430" as="geometry" />
        </mxCell>
        <mxCell id="1Dce43o4w5NnJjjtHdYD-3" value="" style="rounded=1;whiteSpace=wrap;html=1;" vertex="1" parent="1">
          <mxGeometry x="160" y="-590" width="120" height="60" as="geometry" />
        </mxCell>
        <mxCell id="1Dce43o4w5NnJjjtHdYD-4" value="api-gateway-service&lt;br&gt;" style="text;html=1;align=center;verticalAlign=middle;resizable=0;points=[];autosize=1;strokeColor=none;fillColor=none;" vertex="1" parent="1">
          <mxGeometry x="155" y="-630" width="130" height="30" as="geometry" />
        </mxCell>
        <mxCell id="1Dce43o4w5NnJjjtHdYD-6" value="&lt;b&gt;&lt;font style=&quot;font-size: 20px;&quot;&gt;SWAP MARKET&lt;/font&gt;&lt;/b&gt;" style="text;html=1;align=center;verticalAlign=middle;resizable=0;points=[];autosize=1;strokeColor=none;fillColor=none;" vertex="1" parent="1">
          <mxGeometry x="490" y="-820" width="170" height="40" as="geometry" />
        </mxCell>
        <mxCell id="1Dce43o4w5NnJjjtHdYD-7" value="" style="rounded=1;whiteSpace=wrap;html=1;fontSize=20;" vertex="1" parent="1">
          <mxGeometry x="470" y="-730" width="120" height="60" as="geometry" />
        </mxCell>
      </root>
    </mxGraphModel>
  </diagram>
</mxfile>
